<svg xmlns="http://www.w3.org/2000/svg" version="1.1" xmlns:xlink="http://www.w3.org/1999/xlink" xmlns:svgjs="http://svgjs.dev/svgjs" width="1440" height="560" preserveAspectRatio="none" viewBox="0 0 1440 560"><g mask="url(&quot;#SvgjsMask1000&quot;)" fill="none"><rect width="1440" height="560" x="0" y="0" fill="#0e2a47"></rect><path d="M95 458L94 296" stroke-width="8" stroke="url(&quot;#SvgjsLinearGradient1001&quot;)" stroke-linecap="round" class="Up"></path><path d="M1146 201L1145 -133" stroke-width="10" stroke="url(&quot;#SvgjsLinearGradient1001&quot;)" stroke-linecap="round" class="Up"></path><path d="M825 247L824 389" stroke-width="8" stroke="url(&quot;#SvgjsLinearGradient1001&quot;)" stroke-linecap="round" class="Up"></path><path d="M1295 427L1294 653" stroke-width="6" stroke="url(&quot;#SvgjsLinearGradient1001&quot;)" stroke-linecap="round" class="Up"></path><path d="M665 392L664 -10" stroke-width="8" stroke="url(&quot;#SvgjsLinearGradient1002&quot;)" stroke-linecap="round" class="Down"></path><path d="M787 551L786 249" stroke-width="8" stroke="url(&quot;#SvgjsLinearGradient1002&quot;)" stroke-linecap="round" class="Down"></path><path d="M391 387L390 542" stroke-width="10" stroke="url(&quot;#SvgjsLinearGradient1002&quot;)" stroke-linecap="round" class="Down"></path><path d="M558 271L557 -88" stroke-width="8" stroke="url(&quot;#SvgjsLinearGradient1001&quot;)" stroke-linecap="round" class="Up"></path><path d="M913 363L912 587" stroke-width="10" stroke="url(&quot;#SvgjsLinearGradient1001&quot;)" stroke-linecap="round" class="Up"></path><path d="M73 85L72 -216" stroke-width="8" stroke="url(&quot;#SvgjsLinearGradient1002&quot;)" stroke-linecap="round" class="Down"></path><path d="M97 176L96 -64" stroke-width="10" stroke="url(&quot;#SvgjsLinearGradient1001&quot;)" stroke-linecap="round" class="Up"></path><path d="M291 292L290 140" stroke-width="10" stroke="url(&quot;#SvgjsLinearGradient1001&quot;)" stroke-linecap="round" class="Up"></path><path d="M345 210L344 482" stroke-width="8" stroke="url(&quot;#SvgjsLinearGradient1001&quot;)" stroke-linecap="round" class="Up"></path><path d="M454 165L453 478" stroke-width="8" stroke="url(&quot;#SvgjsLinearGradient1001&quot;)" stroke-linecap="round" class="Up"></path><path d="M18 320L17 95" stroke-width="10" stroke="url(&quot;#SvgjsLinearGradient1002&quot;)" stroke-linecap="round" class="Down"></path><path d="M1023 343L1022 687" stroke-width="10" stroke="url(&quot;#SvgjsLinearGradient1002&quot;)" stroke-linecap="round" class="Down"></path><path d="M1322 31L1321 -112" stroke-width="6" stroke="url(&quot;#SvgjsLinearGradient1002&quot;)" stroke-linecap="round" class="Down"></path><path d="M658 160L657 -49" stroke-width="6" stroke="url(&quot;#SvgjsLinearGradient1001&quot;)" stroke-linecap="round" class="Up"></path><path d="M859 272L858 18" stroke-width="6" stroke="url(&quot;#SvgjsLinearGradient1002&quot;)" stroke-linecap="round" class="Down"></path><path d="M1168 317L1167 727" stroke-width="10" stroke="url(&quot;#SvgjsLinearGradient1001&quot;)" stroke-linecap="round" class="Up"></path><path d="M543 344L542 713" stroke-width="10" stroke="url(&quot;#SvgjsLinearGradient1001&quot;)" stroke-linecap="round" class="Up"></path><path d="M1112 496L1111 770" stroke-width="10" stroke="url(&quot;#SvgjsLinearGradient1002&quot;)" stroke-linecap="round" class="Down"></path><path d="M918 438L917 718" stroke-width="10" stroke="url(&quot;#SvgjsLinearGradient1002&quot;)" stroke-linecap="round" class="Down"></path><path d="M1013 283L1012 452" stroke-width="10" stroke="url(&quot;#SvgjsLinearGradient1002&quot;)" stroke-linecap="round" class="Down"></path><path d="M141 294L140 528" stroke-width="10" stroke="url(&quot;#SvgjsLinearGradient1001&quot;)" stroke-linecap="round" class="Up"></path><path d="M715 347L714 49" stroke-width="8" stroke="url(&quot;#SvgjsLinearGradient1001&quot;)" stroke-linecap="round" class="Up"></path><path d="M971 423L970 16" stroke-width="10" stroke="url(&quot;#SvgjsLinearGradient1001&quot;)" stroke-linecap="round" class="Up"></path><path d="M1269 23L1268 -310" stroke-width="6" stroke="url(&quot;#SvgjsLinearGradient1001&quot;)" stroke-linecap="round" class="Up"></path><path d="M1274 238L1273 -149" stroke-width="6" stroke="url(&quot;#SvgjsLinearGradient1001&quot;)" stroke-linecap="round" class="Up"></path><path d="M1344 219L1343 5" stroke-width="10" stroke="url(&quot;#SvgjsLinearGradient1001&quot;)" stroke-linecap="round" class="Up"></path><path d="M839 136L838 532" stroke-width="8" stroke="url(&quot;#SvgjsLinearGradient1001&quot;)" stroke-linecap="round" class="Up"></path><path d="M312 426L311 625" stroke-width="10" stroke="url(&quot;#SvgjsLinearGradient1002&quot;)" stroke-linecap="round" class="Down"></path><path d="M123 116L122 260" stroke-width="6" stroke="url(&quot;#SvgjsLinearGradient1002&quot;)" stroke-linecap="round" class="Down"></path><path d="M1339 20L1338 214" stroke-width="10" stroke="url(&quot;#SvgjsLinearGradient1002&quot;)" stroke-linecap="round" class="Down"></path><path d="M909 141L908 422" stroke-width="10" stroke="url(&quot;#SvgjsLinearGradient1002&quot;)" stroke-linecap="round" class="Down"></path><path d="M1121 148L1120 516" stroke-width="6" stroke="url(&quot;#SvgjsLinearGradient1001&quot;)" stroke-linecap="round" class="Up"></path></g><defs><mask id="SvgjsMask1000"><rect width="1440" height="560" fill="#ffffff"></rect></mask><linearGradient x1="0%" y1="100%" x2="0%" y2="0%" id="SvgjsLinearGradient1001"><stop stop-color="rgba(28, 83, 142, 0)" offset="0"></stop><stop stop-color="#1c538e" offset="1"></stop></linearGradient><linearGradient x1="0%" y1="0%" x2="0%" y2="100%" id="SvgjsLinearGradient1002"><stop stop-color="rgba(28, 83, 142, 0)" offset="0"></stop><stop stop-color="#1c538e" offset="1"></stop></linearGradient></defs></svg>