<svg xmlns="http://www.w3.org/2000/svg" version="1.1" xmlns:xlink="http://www.w3.org/1999/xlink" width="512" height="512" x="0" y="0" viewBox="0 0 512 512" style="enable-background:new 0 0 512 512" xml:space="preserve" class=""><g><ellipse cx="229.3" cy="326.5" fill="#1b136a" rx="127.9" ry="98.9" opacity="1" data-original="#1b136a"></ellipse><path fill="#e6e6ff" d="M421.2 57.6c9.5 25.2 8.2 43.6 5.6 55.5-6 26.9-23.1 37.5-25.4 64.4-1.4 16.3 3.4 29.9 7.2 38.2-40.4-7.3-80.8-14.5-121.2-21.8 0 0-9.3-49.4 13.3-74.1C323.4 95 309.4 42 309.4 42z" opacity="1" data-original="#e6e6ff"></path><path fill="#1b136a" d="M396.9 75.4c-8.5-.1-9.7.2-21.6-2.6-3.1-.7-6.3-1.8-9.5-1.7-1.9.1-3.3.7-8.9 2.8-.2-2.7-2.1-5.3-4.9-6-3-.8-6.2.7-7.6 3.4-.4.8.8 1.5 1.2.7 1.1-2.1 3.6-3.3 6-2.7 2.5.7 4 3.2 3.7 5.7 0 .5.5.9 1 .7 6.8-2.4 8.1-3.1 10.3-3 3.4.2 6.8 1.4 10.1 2.1 5.7 1.3 14.7 3.1 20.4 1.9.7-.1.5-1.3-.2-1.3zM412 112.1c-12.8-1.8-18.1-2.2-35.3-7.5-15.7-4.8-24.3-8.3-33.2-7.8-3.5.2-7.5 1.4-9.2 4.6-1.1-2-2.2-4-3.3-5.9-.4-.7-1.5-.1-1.1.6l3.9 7.5c.3.6 1.2.4 1.4-.2 1-4 5.9-4.9 9.4-5 12.5-.1 26.3 7.5 48.6 12.4 6.1 1.3 12.4 2.5 18.6 2.9 1 .2 1.2-1.4.2-1.6zM398.9 134.6c-2.3-.5-2.1-.4-15.9-2.3-29.6-4-28.6-3.8-30.8-4.6-3.9-1.5-6-5.9-10.7-5.2-2.4.3-4.5 1.8-6.9 2.1-1.7.2-3.8-.1-4.6-1.7-.1-.4-.2-.6-.2-.7 0-.1 0-.1-.1-.2-.5-.9-1.6-.2-1.4.6 0 .3.1.5.2.7-.1.6-.8 1.1-1.4 1.2-2.6.8-4.1-3.3-5.7-5-1.7-1.8-4.9-2.7-6.5-.4-.5.7.7 1.4 1.2.7 1.5-2 4.2.4 5.1 1.7 1.1 1.6 2 3.5 3.8 4.3 1.5.7 3.5.1 4.6-1.1 1.6 1.5 4.3 1.7 6.3 1.2 2.4-.6 4.6-2.1 7.1-1.9 2.4.1 4 2.2 5.8 3.6 3.9 2.9 9.4 2.9 14.1 3.6l26.4 3.6c3.2.4 6.4 1.1 9.6 1.2.7.2.9-1.2 0-1.4zM388.4 155.1c-1.9-.3-54.9-5.8-57.3-6.1-1.4-.2-2.9-.4-4.1-1.1-2.7-1.5-4.1-4.8-8.7-5.7-4.4-.8-9.3 1-11.6 4.9-.5.9.8 1.6 1.4.8 2.3-3.5 7-5.1 11-3.8 2.4.8 3.8 2.7 5.7 4.2s4 2.1 6.4 2.4c11.9 1.4 18.8 2 46.7 5 3.4.4 6.9.9 10.4 1 .8.1 1-1.5.1-1.6zM386.1 184.4c-10.7-8.5-25.3-9.8-38.8-11.5-5.3-.6-10.7-1.4-16-1.9-3.7-.4-7.9-.4-10.9 2-1.8-5.3-8-8.7-13.5-7-.9.3-.5 1.7.4 1.4 5.2-1.6 10.9 2.1 11.8 7.4.1.6 1 .8 1.4.4 2.7-2.9 7.1-2.8 10.7-2.4 4.9.5 9.8 1.2 14.7 1.8 14.2 1.7 28.1 2.7 39.1 11.1.8.6 1.8-.7 1.1-1.3zM424.8 84.6c-.7-5.4-2.8-14-5.3-18.3-.3-.6-1.2-.2-1 .4 2 6.1 7.4 15.6 4.9 37-.1.7 1.1.9 1.2.2 1.1-6.3 1-13 .2-19.3zM417.3 120.4c-1.4 3.3-2.5 6.7-3.6 10.1-.2.8.9 1 1.2.3 1.2-3.3 2.5-6.6 3.5-10 .1-.5-.8-1-1.1-.4zM402.5 206.8c-2.2-2.2-4-5.2-5.1-8.1-1.1-3-1.4-6.2-1.3-9.4 0-.7-1-.8-1.2-.2-1.2 5.7 1 13.5 6.7 18.5.6.6 1.4-.2.9-.8zM458.2 382.4c-.5-.8-1.8-.1-1.3.7 8.7 14.3 4.9 32.3-9.9 40.7-.9-4.5-3.1-9.1-7.3-11.2-3.6-1.8-8.4-1.2-11.2 1.6-6 5.9 1.4 19.3 17.3 12.1 1.6 15.6-10.6 30.3-27.6 31.1-.9 0-.9 1.4 0 1.3 17.8-.3 31.1-16.2 29.1-33.2 16.4-8.4 20.8-29.3 10.9-43.1zm-22.1 44.4c-4.4-.3-9.8-4.6-7.7-9.5 1.5-3.5 6.1-4.6 9.5-3.5 4.5 1.4 6.8 6.3 7.7 11-3.1 1.3-6.3 2.2-9.5 2zM64 328.2c-6.4-.2-11.5-4.6-13.7-10.5-2.5-6.5-.9-13.7 1.1-20.1 7.3.1 12.7-5.8 11.2-10.3-1.3-3.9-6-3.8-8.4-1-1.4 1.6-2 3.7-2.7 5.6-.5 1.3-.9 2.6-1.4 3.9-3.3-.5-6.5-2.4-8.2-5.6-3.6-6.9 1.1-15.1 8.8-16 .9-.1.9-1.5 0-1.4-7.8.4-13.4 8.4-11.2 15.9 1.5 4.9 5.5 8.1 10.1 8.8-1.8 5.5-2.9 11-2.1 16.7 1.1 7.9 7.9 16.9 16.7 15.6 1-.1.7-1.5-.2-1.6zM57.9 286c1.9-.4 3.3 1.1 3.3 3-.1 2.7-3.7 6.7-9.1 6.9 1.8-5.6 2.9-9.2 5.8-9.9zM358.2 223.4c-1.2 1.6-2 3.4-3.1 5.1-5.1-7.8-13.8-5.9-13.9-.3-.1 5.5 6.9 9.6 13.6 3.4 1.7 4.3 1 9.2-2.4 12.4s-8.7 4.2-13 2.3c-.7-.3-1.4.7-.6 1.1 4.5 2.4 10.2 1.5 14.1-1.6 4.6-3.7 5.8-10.2 3.2-15.5 1.7-1.9 2.9-4.2 3.6-6.2.3-1-1-1.4-1.5-.7zm-15.1 5.7c-.9-4.8 6.7-6 10.8.8-4.4 4.6-10 3.3-10.8-.8zM123 100.1c-1.3-1.6-1.9-1.9-10.9-8.5C72.4 62.5 70.5 61 65.7 57.9c-.8-.5-1.8.7-1.1 1.4 7.2 5.8 14.7 11.3 22.1 16.8 34.8 25.9 33.1 24.8 35.3 25.7 1.1.3 1.6-1 1-1.7zM130.3 81.2c-1.8-3.2-2.3-3.5-14.4-19.9-.9-1.2-2.9 0-2 1.2C126 79 126.3 79.7 128.8 82.4c.7.7 2-.3 1.5-1.2zM112.5 120.6c-3.7-.8-4-.6-25.4-2-1.4-.1-1.4 2.1 0 2.2 4.2.3 8.4.7 12.6 1 4.1.3 8.4 1 12.6.7 1-.1 1.3-1.7.2-1.9z" opacity="1" data-original="#1b136a"></path><path fill="#ffaa00" d="M200.2 219h53.1v81.3h-53.1z" opacity="1" data-original="#ffaa00"></path><path fill="#ffaa00" d="M306.4 172.3c-1.9-25.7-6.1-52.8-25.8-69.6C261 85.9 232.9 84.6 207.2 86c-9.8.5-19.8 1.5-28.9 5.4-9.9 4.3-18.3 12.8-19.7 23.5-.3 2 .1 3.8.3 5.7-9.5 22.5-14.1 47.5-14 70.1 0 9.6 1.4 19.5 6.6 27.8 13.1 20.6 55.4 40.6 100.3 31.5 16.6-3.3 34-10.5 44.9-23.9 13-15.7 11.2-33.8 9.7-53.8z" opacity="1" data-original="#ffaa00"></path><circle cx="196.2" cy="167.5" r="6.8" fill="#1b136a" opacity="1" data-original="#1b136a"></circle><circle cx="256.2" cy="166.9" r="6.8" fill="#1b136a" opacity="1" data-original="#1b136a"></circle><path fill="#1b136a" d="M266.8 153.7c-.9-1.1-1.9-2-3.3-2.5-3.4-1.4-8.7-2.1-12.1-.7-1.6.6-.8 2.5.3 2.4 2-.2 5.6-1.1 10.7 1 1.2.5 2.4.8 3.6 1.1.9.2 1.3-.8.8-1.3zM195.9 150.9c.3-.2.3-.7 0-.9 0 0-.2-.4-.3-.4-.5-.4-1-.4-1.6-.5-3.3-.4-7.8 1.3-10 3.1-1.1.9-2.3 2-2.8 3.4-.3.8.5 1.8 1.4 1.4 2.3-1.1 3.9-3.6 9.7-4.9 2.2-.5 2.7-.3 3.3-.8.1-.1.5-.5.3-.4zM232 181.5c-1.9-3-4.2-3.7-5.9-7.5-.7-1.5-1.1-3.3-1.3-4.9-.1-.9 0-1.7 0-2.5.1-1.4-.1-1.7-.1-2 .2-.7-.9-1-1.1-.3-.1.2-.3.3-.4.4-.2.3-.3.7-.5 1.1-.2.7-.3 1.5-.4 2.2-.4 4.1 1 8.6 4.4 12.3 1.8 2 4.4 4.3 2.3 7-2.2 2.8-5.9 2.1-8.8 3.4-.9.4-1.1 1.7 0 2.1 3.4 1.1 7.8-.1 10.3-2.5 2.6-2.4 3.3-5.9 1.5-8.8z" opacity="1" data-original="#1b136a"></path><path fill="#1b136a" d="M254.4 189.1c-2.2 3.1-3.5 7-7.5 11.2-12.5 13.1-31.6 11.4-42.8-.9-1.8-2-3.2-4.3-4.7-6.5-.6-1-2.3-.4-2 .8 1.4 4.8 5.1 9.2 9 12.3 13.5 10.8 30.7 8.8 41.9-1.8 3.7-3.5 8.2-9.5 8-14.6 0-1-1.3-1.3-1.9-.5zM251.6 248.1c-1.8-.6-3.9.7-5.5 1.2-14.1 4.9-26.4 3.9-40.4-.2-1.3-.4-2.3 1.7-1 2.3 12.4 5.8 29.3 5.7 42.6 1 1.8-.6 4.1-1.2 4.9-3.1.3-.5-.1-1.1-.6-1.2z" opacity="1" data-original="#1b136a"></path><ellipse cx="173.3" cy="183.7" fill="#ff6a00" rx="13" ry="9.4" opacity="1" data-original="#ff6a00"></ellipse><ellipse cx="276" cy="183.7" fill="#ff6a00" rx="13" ry="9.4" opacity="1" data-original="#ff6a00"></ellipse><path fill="#1b136a" d="M310.8 155.8c-4.9 3.2-9.2 4.2-12.5 4.3-17.5.8-36.2-19.7-45.9-51.3 0 0-11.7 4.5-19.4 21.8s-60.2 4.2-66 8-5.1 27.2-31.7 11.9c0 0-3.5-11.6-3-25.8 0 0 2.2-23.5 21.1-42.1 22.5-22.2 68.4-23.8 112.1-.8 22.4-3.4 43.2 2.9 52.2 17.2 4.8 7.7 5.2 16.1 5.8 27.6.6 13.7.2 33.7-12.7 29.2z" opacity="1" data-original="#1b136a"></path><circle cx="142.4" cy="166.9" r="17.8" fill="#ffaa00" opacity="1" data-original="#ffaa00"></circle><circle cx="311.3" cy="166.9" r="17.8" fill="#ffaa00" opacity="1" data-original="#ffaa00"></circle><path fill="#1b136a" d="M316.7 156c-3.2-1.3-7.1-.2-9.8 1.9-2.7 2.2-4.2 5.8-3.9 9.3.1.9 1 1.2 1.7.7 1.5-1.2 4-.9 5.1.7 1.1 1.7.2 3.9-1.4 4.9-.9.6-.3 2.3.8 1.8 3-1.2 4.1-5.2 2.4-7.9-1.4-2.1-4.2-2.8-6.5-1.9.2-2.4 1.3-4.6 3.2-6.2 2.4-2 5.4-2.3 8.3-2 .7.1.7-1 .1-1.3zM135.7 156c3.2-1.3 7.1-.2 9.8 1.9 2.7 2.2 4.2 5.8 3.9 9.3-.1.9-1 1.2-1.7.7-1.5-1.2-4-.9-5.1.7-1.1 1.7-.2 3.9 1.4 4.9.9.6.3 2.3-.8 1.8-3-1.2-4.1-5.2-2.4-7.9 1.4-2.1 4.2-2.8 6.5-1.9-.2-2.4-1.3-4.6-3.2-6.2-2.4-2-5.4-2.3-8.3-2-.8.1-.7-1-.1-1.3z" opacity="1" data-original="#1b136a"></path><path fill="#4a53e2" d="M203.7 277.3c-11 .7-70.6 5.9-107.2 55.1C82.6 351 77.4 370 75 379.1c-4.7 18.1-14.5 55.4 2.4 76.8 15.8 20 45.8 14.6 127.5 12.7 129.3-3 150.4 8.1 169.2-12.7 27.3-30.2 14.4-88.8-11.9-123.6-13.9-18.4-30.6-29.3-41.8-35.3-11.1-5.9-28.7-13.1-44.6-16.5-4.9-1.1-9.1-1.6-44.9-2.7-16.6-.3-24.9-.7-27.2-.5z" opacity="1" data-original="#4a53e2"></path><path fill="#e6e6ff" d="M200.2 256.6s-5.7-2.9-8.4 4.6c-3.7 10.3-11 12.3-11.8 20.2-.2 1.9-.1 4.6 7.7 17.6 9.5 15.7 14.2 23.5 18.9 23.3 6.2-.3 11.1-9.6 15.5-17.9 5.9-11.1 5.5-16.9 8.5-17.5 7.3-1.3 13.9 32.3 25.4 32.3 5 0 9-7.2 17-21.6 7.3-13.1 5.8-17.2 5.1-18.7-1.8-3.9-5.1-2.9-9.5-9.3-6.4-9.2-6.8-12.9-10-14.2-.5-.2-2.4-.4-6.3.5-2.2.5-14.5 19.8-20.6 19.9s-31.5-19.2-31.5-19.2z" opacity="1" data-original="#e6e6ff"></path><path fill="#1b136a" d="M251.5 406c2.7-28.6 7.5-69 19.2-96 0 0 6.6-15.3 22.2-28.3 9.2-7.7 17.5 0 27.5 7.1 20.2 14.2 29.1 14.1 29.5 20.4.4 6.1-7.7 9.8-14.2 15.3-24.6 20.4-31.7 67.9-41.6 134.3-.3 2.3-1.3 9.2-5.9 11.3-1.6.7-2.5.4-9.6.2-1.7 0-18.9 0-22.6-1.2-10-3.4-6.6-41.3-4.5-63.1zM211.1 406c-2.7-28.6-7.5-69-19.2-96 0 0-6.6-15.3-22.2-28.3-9.2-7.7-17.5 0-27.5 7.1-20.2 14.2-29.1 14.1-29.5 20.4-.4 6.1 7.7 9.8 14.2 15.3 24.6 20.4 31.7 67.9 41.6 134.3.3 2.3 1.3 9.2 5.9 11.3 1.6.7 2.5.4 9.6.2 1.7 0 18.9 0 22.6-1.2 10-3.4 6.6-41.3 4.5-63.1z" opacity="1" data-original="#1b136a"></path><path fill="#ffaa00" d="M195.9 418.9c-1-1.5-2.6-2.3-4.3-2.5.7-.5 1.3-1 1.9-1.6 4.6-4.6 4.6-11.7-1.5-13.3 2.1-3.1 2.7-7.4 1.1-10.8-1.7-3.9-6.2-5.7-10.9-3.9.4-.8.8-1.7 1.2-2.5 1.5-3.5 2.5-8.7-2.2-10.3-4.1-1.4-7.8 1.2-10 4.4-2.6 3.7-5 10.1-10.5 10-5.2-.1-6.7-6.9-7.5-10.9-.2-1.1-1.7-.9-2 0-3 8-7 15.6-11.7 22.7-6.2 2.8-10.9 4.3-13.3 10.1-1.5 2.5-2 5.6-2 8.5 0 4.6.7 9.5 2 13.9 1.3 4.2 3.4 8.3 6.9 11.1 4 3.2 9.1 3.9 14 4.3 5.7.4 11.4.5 17-.9 10.1-2.6 18.6-9.2 26.6-15.6 3.5-3 8.3-7.8 5.2-12.7z" opacity="1" data-original="#ffaa00"></path><path fill="#1b136a" d="M181.3 387.4c-2.7 6.2-6 11.2-11.6 15.3-1.8 1.3-3.8 2.3-5.7 3.4-.8.4-.3 1.7.6 1.4 7-2.5 15.4-10.9 17.8-19.6.2-.6-.8-1.1-1.1-.5zM191.7 400.3c-1.3.9-1.3 1.9-4.7 5.5-3.3 3.5-7.4 6.7-11.8 9.1-2.2 1.2-4.8 1.9-6.9 3.4-.5.4-.4 1.4.4 1.3 2.5-.2 5-1.5 7.2-2.7 5.8-3.1 10.8-7.3 14.7-12.6.7-1 1.7-2 2-3.2.2-.6-.4-1.1-.9-.8zM191.8 416.5c-2.5 2.3-4.6 5.5-10.4 9.2-5.6 3.5-8.8 4.1-12.7 5.7-.7.3-.7 1.5.2 1.4 4.8-.2 9.6-2.7 13.6-5.3 3.4-2.3 8.5-6.6 10.3-10.3.3-.6-.5-1.2-1-.7z" opacity="1" data-original="#1b136a"></path><path fill="#ffaa00" d="M264.1 418.9c1-1.5 2.6-2.3 4.3-2.5-.7-.5-1.3-1-1.9-1.6-4.6-4.6-4.6-11.7 1.5-13.3-2.1-3.1-2.7-7.4-1.1-10.8 1.7-3.9 6.2-5.7 10.9-3.9-.4-.8-.8-1.7-1.2-2.5-1.5-3.5-2.5-8.7 2.2-10.3 4.1-1.4 7.8 1.2 10 4.4 2.6 3.7 5 10.1 10.5 10 5.2-.1 6.7-6.9 7.5-10.9.2-1.1 1.7-.9 2 0 3 8 7 15.6 11.7 22.7 6.2 2.8 10.9 4.3 13.3 10.1 1.5 2.5 2 5.6 2 8.5 0 4.6-.7 9.5-2 13.9-1.3 4.2-3.4 8.3-6.9 11.1-4 3.2-9.1 3.9-14 4.3-5.7.4-11.4.5-17-.9-10.1-2.6-18.6-9.2-26.6-15.6-3.5-3-8.3-7.8-5.2-12.7z" opacity="1" data-original="#ffaa00"></path><path fill="#1b136a" d="M278.7 387.4c2.7 6.2 6 11.2 11.6 15.3 1.8 1.3 3.8 2.3 5.7 3.4.8.4.3 1.7-.6 1.4-7-2.5-15.4-10.9-17.8-19.6-.2-.6.8-1.1 1.1-.5zM268.3 400.3c1.3.9 1.3 1.9 4.7 5.5 3.3 3.5 7.4 6.7 11.8 9.1 2.2 1.2 4.8 1.9 6.9 3.4.5.4.4 1.4-.4 1.3-2.5-.2-5-1.5-7.2-2.7-5.8-3.1-10.8-7.3-14.7-12.6-.7-1-1.7-2-2-3.2-.1-.6.5-1.1.9-.8zM268.3 416.5c2.5 2.3 4.6 5.5 10.4 9.2 5.6 3.5 8.8 4.1 12.7 5.7.7.3.7 1.5-.2 1.4-4.8-.2-9.6-2.7-13.6-5.3-3.4-2.3-8.5-6.6-10.3-10.3-.3-.6.4-1.2 1-.7zM129.8 348.8c-.4-.9-1.9-.6-1.6.4 2.2 7.8 4.4 14.7 5 26.5.8 15-2 23.7-2.2 27-10.2 5.3-19.5 18.2-21 29.3-.1.9 1.3 1.1 1.6.2 1.7-5.3 2.8-9.5 7.4-16 3.5-4.9 8-8.8 12.9-12.2.2-.2.4-.4.4-.6.1-.1.2-.2.3-.4 4.3-13.4 3.7-38.3-2.8-54.2zM331 348.8c.4-.9 1.9-.6 1.6.4-2.2 7.8-4.4 14.7-5 26.5-.8 15 2 23.7 2.2 27 10.2 5.3 19.5 18.2 21 29.3.1.9-1.3 1.1-1.6.2-1.7-5.3-2.8-9.5-7.4-16-3.5-4.9-8-8.8-12.9-12.2-.2-.2-.4-.4-.4-.6-.1-.1-.2-.2-.3-.4-4.3-13.4-3.8-38.3 2.8-54.2z" opacity="1" data-original="#1b136a"></path><path fill="#e6e6ff" d="M152.5 281.8c-4.5 7.9-11.7 13.9-20.6 16-4.6 1.1-9.9.6-14.1 3.2-2.8 1.7-6.5 6.1-4.4 9.6.3.5 1.2.3 1.2-.3 0-1.7-.4-3.6 2-6.1 4.3-4.5 12.3-3.1 19.3-5.7 7.6-2.8 14.5-8.5 17.8-15.9.3-.8-.7-1.5-1.2-.8zM338.7 299.9c-5.2-.6-9.1.5-14.2-4.8-3.4-3.6-5.5-8.2-8.9-11.9-2.7-2.9-7.7-6.1-11.9-4.5-.7.3-.6 1.4.2 1.3 2.5 0 4.5.1 6.8 1.4 5.9 3.3 8.2 10.4 12.9 15.2 3.1 3.2 6.7 4.5 11.1 4.8 4.2.3 9.2.5 11 5 .2.6 1.3.6 1.2-.2-.3-4-4.8-5.9-8.2-6.3z" opacity="1" data-original="#e6e6ff"></path><path fill="#b4b2fa" d="M26.7 135.5c.8-6.6 1.6-13.2 2.3-19.8 5.7 3.9 11.4 7.8 17.1 11.6 17 40.8 34 81.5 51.1 122.3l-19.4 8.1z" opacity="1" data-original="#b4b2fa"></path><path fill="#ffaa00" d="m73.9 248.4 19.4-8.1 4.2 10.1c1.1 2.6-.1 5.7-2.8 6.8l-10.1 4.2c-2.5 1.1-5.5-.1-6.5-2.7z" opacity="1" data-original="#ffaa00"></path><path fill="#e6e6ff" d="M81.7 229c.9 2.1 1.7 4.5 3 6.4.3.4 1.1.1 1-.4-.5-2.2-1.8-4.4-2.7-6.5-17.3-39.9-10.4-23.9-20.6-46.8-.3-.6-1.3-.2-1 .4 12.2 28.3 2.6 6.5 20.3 46.9zM55.8 167.5c.3.7 1.4.2 1.1-.4C55 163 53 159 51.1 155c-.3-.7-1.4-.2-1.1.5 1.9 4 3.8 8 5.8 12zM70.3 223.3c.3.7 1.3.2 1.1-.4-3.8-9.3-19-44.2-22.8-52.4-.3-.7-1.4-.3-1.1.5 3.3 8.3 18.6 43.1 22.8 52.3z" opacity="1" data-original="#e6e6ff"></path><path fill="#ffaa00" d="M46.2 127.4s-8.7 11.9-19.4 8.1l2.3-19.8z" opacity="1" data-original="#ffaa00"></path><path fill="#1b136a" d="M33.8 119s-.6 3.6-5.5 3.2l.8-6.5zM29.2 136.7c5.5 1.6 12.1-1.5 14.8-6.4.3-.6-.6-1.1-1-.6-3 4.4-7.6 6.5-13.5 5.8-.7-.1-1 1-.3 1.2zM58.4 212.6c2.8 7.2 6.3 14.2 9.6 21.3 3.2 7.1 6.5 14.1 9.8 21.2.4.9 1.8.3 1.4-.6l-9.6-21.3c-3.2-7.1-6.2-14.3-9.8-21.2-.6-.7-1.7-.2-1.4.6zM47.7 186.6c.3.8 1.6.3 1.3-.5-4.4-11.2-4.5-11.9-5.6-13.8-.4-.7-1.4-.3-1.2.5.6 2.1.9 2.6 5.5 13.8zM83.2 367.8c.3-.8-1-1.1-1.3-.3-5.8 16.1-9.1 33.9-9.9 50.9-.4 9-.7 20.3 7.2 24.8.9.5 1.6-.8.8-1.3-7.3-5.1-6.6-15.7-6.2-23.5.9-18.4 4.2-34.2 9.4-50.6zM122 465.7c-1.8-.3-2.4-.2-11.6-.1-1.2 0-1.2 1.8 0 1.8 8.8 0 9.8.1 11.6-.2.7-.1.7-1.3 0-1.5zM372.1 360.3c-.4-1-2.1-.3-1.7.7 7.7 20.7 9.9 36.3 7.3 59.3-.1.8 1.3 1 1.4.2 4-19.8.5-43.9-7-60.2zM378.9 434.8c-.4-.2-1.1-.1-1.3.4-1.4 3.2-2.9 6.4-4 9.7-.3.8.9 1.3 1.3.6 1.6-3 2.9-6.1 4.3-9.2.3-.6.2-1.2-.3-1.5zM208.8 312.4c-4.9 3.3-8.1-5-9.8-8.1-2.8-5.1-5.3-10.4-8.4-15.3-.4-.7-1.4-.1-1.1.6 2.8 6.2 6.3 12.1 9.5 18.1 1.2 2.2 2.4 4.8 4.6 6.1 1.8 1.1 4.5 1.3 6-.4.5-.5-.1-1.5-.8-1zM221.3 297.8c-.4-.1-.8.1-1 .6-.7 2-.8 2.4-.9 3-.2.9.9 1.2 1.3.5.3-.5.4-.9 1.2-3.1.1-.4-.2-.9-.6-1z" opacity="1" data-original="#1b136a"></path><path fill="#e6e6ff" d="m487 317.7-114.7-40.5 40.4 115.5 33.4-35.5 18.6 21.2.8-37.1z" opacity="1" data-original="#e6e6ff"></path><path fill="#b4b2fa" d="m465.5 341.3-93.2-64c85.9 93 67.6 72.9 92.4 101.2z" opacity="1" data-original="#b4b2fa"></path></g></svg>